<svg width="20" height="20" viewBox="0 0 20 20" fill="none" xmlns="http://www.w3.org/2000/svg">
<path d="M9.91256 9.62932C11.237 9.62932 12.3824 9.15452 13.3153 8.21741C14.2524 7.2803 14.7272 6.13494 14.7272 4.81466C14.7272 3.49021 14.2524 2.34486 13.3153 1.41191C12.3782 0.474802 11.2328 0 9.91256 0C8.58811 0 7.44276 0.474802 6.50981 1.41191C5.57687 2.34902 5.0979 3.49438 5.0979 4.81466C5.0979 6.13911 5.5727 7.28446 6.50981 8.21741C7.44276 9.15452 8.58811 9.62932 9.91256 9.62932Z" fill="#018AD2"/>
<path d="M18.3382 15.3725C18.3132 14.981 18.2549 14.5562 18.1758 14.1105C18.0966 13.6565 17.9883 13.2317 17.8634 12.8402C17.7343 12.4362 17.5593 12.0364 17.3428 11.6574C17.1179 11.2617 16.8513 10.916 16.5556 10.6328C16.2432 10.3371 15.8642 10.0955 15.4227 9.92059C14.9854 9.74567 14.4981 9.6582 13.9775 9.6582C13.7734 9.6582 13.5777 9.7415 13.1945 9.9914C12.9613 10.1455 12.6864 10.3204 12.3782 10.5162C12.1158 10.6828 11.7618 10.841 11.3244 10.9827C10.8955 11.1201 10.4623 11.1909 10.0333 11.1909C9.60433 11.1909 9.17118 11.1201 8.74219 10.9827C8.30487 10.841 7.95085 10.6869 7.68846 10.5162C7.38442 10.3204 7.10954 10.1455 6.87214 9.9914C6.49313 9.7415 6.29321 9.6582 6.08913 9.6582C5.56851 9.6582 5.08538 9.74567 4.6439 9.92059C4.20242 10.0955 3.82341 10.3329 3.51104 10.6328C3.21533 10.916 2.94877 11.2617 2.72387 11.6574C2.50729 12.0405 2.33236 12.4362 2.20325 12.8402C2.0783 13.2317 1.97418 13.6565 1.89088 14.1105C1.82424 14.4812 1.77426 14.8352 1.74511 15.1642H3.48605L4.37318 12.1322C4.45231 11.8656 4.69388 11.6824 4.97293 11.6824C5.25198 11.6824 5.49354 11.8656 5.57268 12.1322L6.73469 16.1513L7.70929 13.24C7.79259 12.986 8.03415 12.8152 8.30071 12.8152H8.30487C8.57559 12.8152 8.81299 12.9943 8.89629 13.2525L9.50437 15.1726H11.7868C12.1324 15.1726 12.4115 15.4516 12.4115 15.7973C12.4115 16.143 12.1324 16.422 11.7868 16.422H9.04623C8.77551 16.422 8.53394 16.2471 8.45065 15.9847L8.28405 15.4558L7.2803 18.4504C7.197 18.7044 6.95544 18.8752 6.68888 18.8752C6.68471 18.8752 6.68055 18.8752 6.67638 18.8752C6.4015 18.871 6.1641 18.6878 6.08913 18.4254L4.9646 14.5478L4.5481 15.9681C4.46897 16.2346 4.22741 16.4179 3.94835 16.4179H1.69929C1.69929 16.4221 1.69929 16.4262 1.69929 16.4345H0.62474C0.27905 16.4345 0 16.7136 0 17.0593C0 17.405 0.27905 17.684 0.62474 17.684H1.84923C2.0075 18.2255 2.28655 18.6878 2.68638 19.0709C3.33194 19.6874 4.18576 19.9997 5.22699 19.9997H14.8521C15.8934 19.9997 16.7472 19.6874 17.3928 19.0709C18.0466 18.4504 18.3798 17.6049 18.3798 16.5595C18.3757 16.1513 18.3632 15.7515 18.3382 15.3725Z" fill="#018AD2"/>
</svg>
