<svg width="20" height="19" viewBox="0 0 20 19" fill="none" xmlns="http://www.w3.org/2000/svg">
<path d="M18.4158 2.57105C17.3846 1.44839 15.9667 0.833008 14.4241 0.833008C13.2723 0.833008 12.2162 1.19891 11.289 1.91409C10.8191 2.27999 10.395 2.72074 10.0208 3.24049C9.64657 2.7249 9.22245 2.27999 8.7526 1.91825C7.82536 1.19891 6.76923 0.833008 5.61746 0.833008C4.07484 0.833008 2.65696 1.44839 1.62578 2.57105C0.602911 3.67708 0.04158 5.1906 0.04158 6.83301C0.04158 7.91825 0.303534 8.94527 0.848233 9.9723H4.63202L5.86279 5.75193C5.94179 5.48582 6.18295 5.30286 6.46154 5.30286C6.74012 5.30286 6.98129 5.48582 7.06029 5.75193L8.81081 11.7935L10.3326 7.24049C10.4158 6.98685 10.657 6.81638 10.9231 6.81638H10.9272C11.1975 6.81638 11.4345 6.99517 11.5177 7.25297L12.3825 9.9723H15.6008C15.9459 9.9723 16.2245 10.2509 16.2245 10.596C16.2245 10.9411 15.9459 11.2197 15.6008 11.2197H11.9293C11.659 11.2197 11.4179 11.0451 11.3347 10.7831L10.9106 9.45255L9.35967 14.0887C9.27651 14.3424 9.03534 14.5128 8.76923 14.5128C8.76507 14.5128 8.76091 14.5128 8.75676 14.5128C8.48233 14.5087 8.24532 14.3257 8.17048 14.0638L6.46154 8.16357L5.69647 10.7706C5.61746 11.0368 5.3763 11.2197 5.09771 11.2197H1.64657C1.64657 11.2197 1.64657 11.2197 1.64657 11.2239H0.623701C0.278586 11.2239 0 11.5024 0 11.8476C0 12.1927 0.278586 12.4713 0.623701 12.4713H2.70686C3.85031 13.6854 5.31809 14.937 6.97297 16.3465C7.65904 16.9328 8.43659 17.5939 9.2474 18.3008C9.45946 18.4879 9.73389 18.5918 10.0208 18.5918C10.3035 18.5918 10.578 18.4879 10.79 18.3008C11.5967 17.5939 12.3784 16.9286 13.0644 16.3465C15.0769 14.6334 16.8108 13.1532 18.0208 11.6979C19.3721 10.0638 20 8.517 20 6.83301C20 5.1906 19.4387 3.67708 18.4158 2.57105Z" fill="#F35685"/>
</svg>
