<svg width="81" height="61" viewBox="0 0 81 61" fill="none" xmlns="http://www.w3.org/2000/svg">
<path d="M67.2 21.4L76.9 13.2L65.3 10.8L67.2 21.4Z" fill="#139CAB"/>
<path d="M71.7 16.8C76.3392 16.8 80.1 13.0392 80.1 8.4C80.1 3.76081 76.3392 0 71.7 0C67.0608 0 63.3 3.76081 63.3 8.4C63.3 13.0392 67.0608 16.8 71.7 16.8Z" fill="#139CAB"/>
<path d="M24.3 60.4C23.3 60.4 22.3 60.2 21.3 59.9C16.9 58.3 14.6 53.4 16.3 49L32.3 5.69995C33.9 1.29995 38.8 -1.00005 43.2 0.699951C47.6 2.29995 49.9 7.19995 48.2 11.6L32.2 54.9C31 58.3 27.7 60.4 24.3 60.4Z" fill="url(#paint0_linear_2080_12583)"/>
<path d="M24.3 60.4C20.8 60.4 17.5 58.2 16.3 54.8L0.599982 11.5C-1.00002 7.10001 1.29998 2.20001 5.79998 0.600007C10.2 -0.999993 15.1 1.30001 16.7 5.70001L32.3 49C33.9 53.4 31.6 58.3 27.2 59.9C26.2 60.2 25.2 60.4 24.3 60.4Z" fill="#139CAB"/>
<path d="M55.9 60.4C52.4 60.4 49.1 58.2 47.9 54.8L32.3 11.5C30.7 7.10001 33 2.20001 37.4 0.600007C41.8 -0.999993 46.7 1.30001 48.3 5.70001L63.9 49C65.5 53.4 63.2 58.3 58.8 59.9C57.8 60.2 56.9 60.4 55.9 60.4Z" fill="#139CAB"/>
<defs>
<linearGradient id="paint0_linear_2080_12583" x1="10.4004" y1="48.5878" x2="54.1437" y2="11.8828" gradientUnits="userSpaceOnUse">
<stop offset="0.2" stop-color="#139CAB"/>
<stop offset="0.7" stop-color="#00C5AB"/>
</linearGradient>
</defs>
</svg>
