<svg width="44" height="36" viewBox="0 0 44 36" fill="none" xmlns="http://www.w3.org/2000/svg">
<g filter="url(#filter0_d_1947_12588)">
<path d="M32.6437 12.5L36.5176 9.24311L31.9238 8.2832L32.6437 12.5Z" fill="#139CAB"/>
<path d="M34.46 10.7194C36.3155 10.7194 37.8197 9.21519 37.8197 7.35969C37.8197 5.50418 36.3155 4 34.46 4C32.6045 4 31.1003 5.50418 31.1003 7.35969C31.1003 9.21519 32.6045 10.7194 34.46 10.7194Z" fill="#139CAB"/>
<path d="M15.6028 28.0002C15.2257 28.0002 14.8143 27.9317 14.4372 27.7945C12.6888 27.1432 11.7974 25.189 12.4488 23.4406L18.7911 6.26508C19.4425 4.51667 21.3966 3.62533 23.145 4.2767C24.8934 4.92806 25.7847 6.88217 25.1334 8.63058L18.7568 25.8061C18.2768 27.1432 16.9741 28.0002 15.6028 28.0002Z" fill="url(#paint0_linear_1947_12588)"/>
<path d="M15.6024 27.9941C14.2311 27.9941 12.9283 27.137 12.4141 25.7657L6.20897 8.55592C5.55761 6.80751 6.48323 4.88769 8.23164 4.23632C9.98005 3.58495 11.9342 4.51058 12.5512 6.25899L18.7564 23.4345C19.4077 25.1829 18.4821 27.137 16.7337 27.7541C16.3566 27.9255 15.9795 27.9941 15.6024 27.9941Z" fill="#139CAB"/>
<path d="M28.1823 27.9941C26.811 27.9941 25.5083 27.137 24.9941 25.7657L18.7889 8.55591C18.1376 6.80751 19.0632 4.8534 20.8116 4.23632C22.56 3.58495 24.5141 4.51058 25.1312 6.25899L31.3363 23.4345C31.9877 25.1829 31.062 27.137 29.3136 27.7541C28.9365 27.9255 28.5594 27.9941 28.1823 27.9941Z" fill="#139CAB"/>
</g>
<defs>
<filter id="filter0_d_1947_12588" x="0" y="0" width="44" height="36" filterUnits="userSpaceOnUse" color-interpolation-filters="sRGB">
<feFlood flood-opacity="0" result="BackgroundImageFix"/>
<feColorMatrix in="SourceAlpha" type="matrix" values="0 0 0 0 0 0 0 0 0 0 0 0 0 0 0 0 0 0 127 0" result="hardAlpha"/>
<feOffset dy="2"/>
<feGaussianBlur stdDeviation="3"/>
<feColorMatrix type="matrix" values="0 0 0 0 0 0 0 0 0 0.772549 0 0 0 0 0.670588 0 0 0 0.3 0"/>
<feBlend mode="normal" in2="BackgroundImageFix" result="effect1_dropShadow_1947_12588"/>
<feBlend mode="normal" in="SourceGraphic" in2="effect1_dropShadow_1947_12588" result="shape"/>
</filter>
<linearGradient id="paint0_linear_1947_12588" x1="10.0865" y1="23.3144" x2="27.473" y2="8.72544" gradientUnits="userSpaceOnUse">
<stop stop-color="#139CAB"/>
<stop offset="1" stop-color="#00C5AB"/>
</linearGradient>
</defs>
</svg>
