<svg width="12" height="13" viewBox="0 0 12 13" fill="none" xmlns="http://www.w3.org/2000/svg">
<path d="M6 0.5C2.69147 0.5 0 3.19147 0 6.5C0 9.80853 2.69147 12.5 6 12.5C9.30853 12.5 12 9.80853 12 6.5C12 3.19147 9.30853 0.5 6 0.5ZM6 9.99997C5.72397 9.99997 5.50003 9.77603 5.50003 9.5C5.50003 9.22397 5.72397 9.00003 6 9.00003C6.27603 9.00003 6.49997 9.22397 6.49997 9.5C6.49997 9.77603 6.27603 9.99997 6 9.99997ZM6.49997 7.50003C6.49997 7.77597 6.27603 8 6 8C5.72397 8 5.50003 7.77597 5.50003 7.50003V3.5C5.50003 3.22397 5.72397 3.00003 6 3.00003C6.27603 3.00003 6.49997 3.22397 6.49997 3.5V7.50003Z" fill="white"/>
</svg>
