<svg width="12" height="12" viewBox="0 0 12 12" fill="none" xmlns="http://www.w3.org/2000/svg">
<path d="M6.25008 0.666992C3.30916 0.666992 0.916748 3.05941 0.916748 6.00033C0.916748 8.94124 3.30916 11.3337 6.25008 11.3337C9.191 11.3337 11.5834 8.94124 11.5834 6.00033C11.5834 3.05941 9.191 0.666992 6.25008 0.666992ZM6.25008 9.11141C6.00472 9.11141 5.80566 8.91235 5.80566 8.66699C5.80566 8.42163 6.00472 8.22257 6.25008 8.22257C6.49544 8.22257 6.6945 8.42163 6.6945 8.66699C6.6945 8.91235 6.49544 9.11141 6.25008 9.11141ZM6.6945 6.88924C6.6945 7.13452 6.49544 7.33366 6.25008 7.33366C6.00472 7.33366 5.80566 7.13452 5.80566 6.88924V3.33366C5.80566 3.0883 6.00472 2.88924 6.25008 2.88924C6.49544 2.88924 6.6945 3.0883 6.6945 3.33366V6.88924Z" fill="#D82D4C"/>
</svg>
